# xmcd
#
# Track frame offsets:
#	150
#	13112
#	25719
#	39481
#	55143
#	70081
#	82846
#	96760
#	111175
#	126022
#
# Disc length: 1861 seconds
#
# Revision: 0
# Processed by: cddbd v1.5.2PL0 Copyright (c) Steve Scherf et al.
# Submitted via: EasyCDDAExtractor 16.0.6.1
#
DISCID=7307430a
DTITLE=Συλλογικός δίσκος - Λαϊκό τραγούδι 1954-1967, 1963-5
DYEAR=2008
DGENRE=Λαϊκή
TTITLE0=Πάνου Πόλυ - Τα λιμάνια [Βασίλης Τσιτσάνης]
TTITLE1=Μενιδιάτης Μιχάλης-Κολλητήρη Σοφία - Λίγο-λίγο θα με συνηθίσεις [Απόστ
TTITLE1=ολος Καλδάρας-Ευτ. Παπαγιαννοπούλου]
TTITLE2=Αναγνωστάκης Πέτρος-Γέρακα Καίτη - Θυμήσου, θυμήσου [Θεόδωρος Δερβενιώ
TTITLE2=της-Κώστας Βίρβος]
TTITLE3=Καζαντζίδης Στέλιος-Φινέτη Μπέμπα - Κλάψε σήμερα καρδιά μου [Βασίλης Τ
TTITLE3=σιτσάνης]
TTITLE4=Καζαντζίδης Στέλιος-Μαρινέλλα - Δεν βρήκα έναν άνθρωπο [Στέλιος Καζαντ
TTITLE4=ζίδης-Χρήστος Κολοκοτρώνης]
TTITLE5=Γαβαλάς Πάνος-Κολλητήρη Σοφία - Έλα να κλάψουμε μαζί [Βασίλης Τσιτσάνη
TTITLE5=ς]
TTITLE6=Μενιδιάτης Μιχάλης-Φινέτη Μπέμπα - Περιφρόνα με γλυκειά μου [Απόστολος
TTITLE6=Καλδάρας-Γιώργος Σαμολαδάς]
TTITLE7=Ζαμπέτας Γιώργος - Ο αράπης [Γιώργος Ζαμπέτας-Χ. Βασιλειάδης]
TTITLE8=Περπινιάδης Βαγγέλης-Καλάκη Ρούλα - Φταίω, φταίω [Γιώργος Μανίσαλης-Κώ
TTITLE8=στας Βίρβος]
TTITLE9=Μπιθικώτσης Γρηγόρης-Κούρτη Ρία - Άπονη ζωή [Σταύρος Ξαρχάκος-Λευτέρης
TTITLE9=Παπαδόπουλος]
EXTD=
EXTT0=
EXTT1=
EXTT2=
EXTT3=
EXTT4=
EXTT5=
EXTT6=
EXTT7=
EXTT8=
EXTT9=
PLAYORDER=
